<svg width="24" height="24" viewBox="0 0 24 24" fill="none" xmlns="http://www.w3.org/2000/svg">
<path d="M2.56657 18.5625H6.17065L10.4759 14.3297L5.89461 12.0916L1.03128 14.9159V17.0076C1.02882 17.4174 1.18916 17.8113 1.47705 18.1029C1.76495 18.3944 2.15683 18.5598 2.56657 18.5625Z" fill="#77B6D5"/>
<path d="M6.01933 11.4253L10.9699 13.8379L15.2274 9.65374C15.2824 9.59977 15.3547 9.56683 15.4315 9.56067C15.5083 9.55451 15.5849 9.57552 15.6478 9.62003L18.8042 11.8547C18.9711 11.8355 19.1389 11.8258 19.3069 11.8257C20.072 11.8257 20.7656 12.0251 21.4219 12.3742V5.70583C21.4219 4.85285 20.7159 4.17189 19.8629 4.17189H2.56656C2.36478 4.1709 2.16479 4.20988 1.97816 4.2866C1.79153 4.36331 1.62194 4.47624 1.4792 4.61886C1.33645 4.76148 1.22337 4.93097 1.14649 5.11754C1.0696 5.3041 1.03044 5.50405 1.03126 5.70583V14.1574L5.71665 11.4366C5.76214 11.4096 5.81368 11.3944 5.86655 11.3924C5.91942 11.3904 5.97195 11.4017 6.01933 11.4253ZM10.0901 6.78466C10.4812 6.78466 10.8635 6.90063 11.1887 7.11791C11.5138 7.33518 11.7673 7.64401 11.9169 8.00533C12.0666 8.36664 12.1058 8.76423 12.0295 9.1478C11.9532 9.53137 11.7648 9.88371 11.4883 10.1602C11.2118 10.4368 10.8594 10.6251 10.4759 10.7014C10.0923 10.7777 9.6947 10.7386 9.33338 10.5889C8.97206 10.4392 8.66324 10.1858 8.44596 9.8606C8.22869 9.53543 8.11272 9.15312 8.11272 8.76203C8.11332 8.23779 8.32185 7.7352 8.69255 7.36451C9.06325 6.99382 9.56585 6.7853 10.0901 6.78471V6.78466Z" fill="#77B6D5"/>
<path d="M10.0907 10.0832C10.3519 10.0832 10.6074 10.0057 10.8246 9.86052C11.0419 9.71535 11.2112 9.50902 11.3112 9.26762C11.4112 9.02621 11.4374 8.76058 11.3864 8.5043C11.3354 8.24803 11.2096 8.01263 11.0248 7.82787C10.8401 7.6431 10.6047 7.51728 10.3484 7.4663C10.0921 7.41533 9.82649 7.44149 9.58508 7.54148C9.34368 7.64148 9.13735 7.81081 8.99218 8.02807C8.84701 8.24532 8.76953 8.50075 8.76953 8.76204C8.76993 9.11231 8.90924 9.44811 9.15692 9.69578C9.40459 9.94345 9.74039 10.0828 10.0907 10.0832Z" fill="#77B6D5"/>
<path d="M15.6211 16.1616C15.6211 16.8894 15.8369 17.6008 16.2412 18.2059C16.6456 18.8111 17.2203 19.2827 17.8926 19.5612C18.565 19.8397 19.3049 19.9126 20.0187 19.7706C20.7324 19.6286 21.3881 19.2782 21.9027 18.7636C22.4173 18.2489 22.7678 17.5933 22.9098 16.8795C23.0517 16.1657 22.9789 15.4258 22.7004 14.7535C22.4219 14.0811 21.9502 13.5064 21.3451 13.1021C20.74 12.6977 20.0286 12.4819 19.3008 12.4819C18.3252 12.483 17.3898 12.871 16.7 13.5608C16.0102 14.2507 15.6221 15.186 15.6211 16.1616ZM19.5935 14.2031V15.8906H21.281C21.368 15.8906 21.4515 15.9252 21.513 15.9867C21.5745 16.0483 21.6091 16.1317 21.6091 16.2188C21.6091 16.3058 21.5745 16.3892 21.513 16.4508C21.4515 16.5123 21.368 16.5469 21.281 16.5469H19.5935V18.1875C19.5935 18.2745 19.5589 18.358 19.4974 18.4195C19.4358 18.4811 19.3524 18.5156 19.2653 18.5156C19.1783 18.5156 19.0949 18.4811 19.0333 18.4195C18.9718 18.358 18.9372 18.2745 18.9372 18.1875V16.5469H17.2966C17.2096 16.5469 17.1261 16.5123 17.0646 16.4508C17.003 16.3892 16.9685 16.3058 16.9685 16.2188C16.9685 16.1317 17.003 16.0483 17.0646 15.9867C17.1261 15.9252 17.2096 15.8906 17.2966 15.8906H18.9372V14.2031C18.9372 14.1161 18.9718 14.0327 19.0333 13.9711C19.0949 13.9096 19.1783 13.875 19.2653 13.875C19.3524 13.875 19.4358 13.9096 19.4974 13.9711C19.5589 14.0327 19.5935 14.1161 19.5935 14.2031Z" fill="#77B6D5"/>
<path d="M17.9365 12.0481L15.4915 10.3181L7.10742 18.5625H15.6877C15.3196 18.0069 15.0844 17.3739 15.0003 16.7128C14.9163 16.0516 14.9857 15.3799 15.2032 14.7499C15.4207 14.1199 15.7804 13.5484 16.2544 13.0799C16.7285 12.6113 17.304 12.2583 17.9365 12.0481Z" fill="#77B6D5"/>
</svg>
