<svg width="30" height="30" viewBox="0 0 30 30" fill="none" xmlns="http://www.w3.org/2000/svg">
<path d="M23.3176 19.3414C22.5116 19.3414 21.8602 19.9928 21.8602 20.7987V25.3763C21.8602 26.1808 21.2073 26.8336 20.4029 26.8336H4.37201C3.56753 26.8336 2.91469 26.1807 2.91469 25.3763V6.43079C2.91469 5.62631 3.56759 4.97347 4.37201 4.97347H12.8392C13.6451 4.97347 14.2965 4.32204 14.2965 3.51616C14.2965 2.71027 13.6451 2.05884 12.8392 2.05884H4.37201C1.96157 2.05872 0 4.02035 0 6.43079V25.3763C0 27.7867 1.96157 29.7483 4.37201 29.7483H20.4028C22.8133 29.7483 24.7748 27.7882 24.7748 25.3763V20.7988C24.7749 19.9928 24.1234 19.3414 23.3176 19.3414Z" fill="white"/>
<path d="M28.3705 1.87364C27.3124 0.815627 25.9308 0.282199 24.5391 0.253078C23.0744 0.221028 21.6011 0.751468 20.4935 1.86051L10.6272 11.7268C9.18735 13.1725 8.39453 15.0903 8.39453 17.1277V20.3921C8.39453 21.198 9.04597 21.8494 9.85185 21.8494H13.1163C15.1537 21.8494 17.0715 21.0566 18.5187 19.6153L28.3718 9.76215C30.5433 7.58936 30.5433 4.04801 28.3705 1.87364ZM16.4595 17.5533C15.5662 18.4437 14.377 18.9348 13.1164 18.9348H11.3092V17.1277C11.3092 15.8671 11.8004 14.6779 12.6893 13.786L19.1935 7.28186L22.9622 11.0505L16.4595 17.5533ZM26.3097 7.70302L25.0229 8.9899L21.2542 5.22121L22.541 3.9344C23.5816 2.89385 25.2721 2.89678 26.3097 3.9344C27.3474 4.97342 27.3474 6.66394 26.3097 7.70302Z" fill="white"/>
</svg>
