<svg width="8" height="8" viewBox="0 0 8 8" fill="none" xmlns="http://www.w3.org/2000/svg">
<g clip-path="url(#clip0_372_1598)">
<path d="M4.94043 1.34375L0.538719 5.74578C0.516574 5.76799 0.500584 5.79604 0.49297 5.82618L0.00508186 7.78445C-0.00951227 7.8434 0.00781033 7.90609 0.0508312 7.94911C0.0833825 7.98166 0.127736 7.99969 0.173105 7.99969C0.187001 7.99969 0.201214 7.99797 0.215047 7.99448L2.17332 7.50653C2.20384 7.49892 2.23157 7.48299 2.25372 7.46084L6.65581 3.05913L4.94043 1.34375Z" fill="#979797"/>
<path d="M7.7452 0.743529L7.25522 0.253547C6.92774 -0.0739322 6.35699 -0.0736149 6.02989 0.253547L5.42969 0.853746L7.14501 2.56906L7.7452 1.96886C7.90879 1.80535 7.99889 1.5877 7.99889 1.35623C7.99889 1.12475 7.90879 0.90711 7.7452 0.743529Z" fill="#979797"/>
</g>
<defs>
<clipPath id="clip0_372_1598">
<rect width="8" height="8" fill="white"/>
</clipPath>
</defs>
</svg>
